PathFileType	4	(X/Y/Z)	Patient4_TMGait_0pt6_02_left_41.trc.trc
DataRate	CameraRate	NumFrames	NumMarkers	Units	OrigDataRate	OrigDataStartFrame	OrigNumFrames
83.832335329341	83.832335329341	4	33	mm	83.832335329341	53	       141
Frame#	Time	Sacral			L.Shoulder			Chest			R.Shoulder			Neck			R.ASIS			L.ASIS			R.Thigh.Superior			R.Thigh.Lateral			R.Thigh.Inferior			R.Patella			L.Thigh.Superior			L.Thigh.Lateral			L.Thigh.Inferior			L.Patella			L.Shank.Superior			L.Shank.Lateral			L.Shank.Inferior			R.Shank.Superior			R.Shank.Lateral			R.Shank.Inferior			R.Heel			R.Midfoot.Superior			R.Midfoot.Lateral			R.Toe			L.Heel			L.Midfoot.Lateral			L.Midfoot.Superior			L.Toe			L.Elbow			L.Wrist			R.Elbow			R.Wrist			
		X1	Y1	Z1	X2	Y2	Z2	X3	Y3	Z3	X4	Y4	Z4	X5	Y5	Z5	X6	Y6	Z6	X7	Y7	Z7	X8	Y8	Z8	X9	Y9	Z9	X10	Y10	Z10	X11	Y11	Z11	X12	Y12	Z12	X13	Y13	Z13	X14	Y14	Z14	X15	Y15	Z15	X16	Y16	Z16	X17	Y17	Z17	X18	Y18	Z18	X19	Y19	Z19	X20	Y20	Z20	X21	Y21	Z21	X22	Y22	Z22	X23	Y23	Z23	X24	Y24	Z24	X25	Y25	Z25	X26	Y26	Z26	X27	Y27	Z27	X28	Y28	Z28	X29	Y29	Z29	X30	Y30	Z30	X31	Y31	Z31	X32	Y32	Z32	X33	Y33	Z33	

53	50.720285714286	840.196804768781	1016.493318010257	478.900456794706	1045.037303865888	1439.899240819906	304.941084557803	1138.274301460305	1360.706204050266	467.256913746386	1052.958273641477	1440.136084143056	638.355601736635	1044.684316584408	1498.660788605033	456.359212895876	1064.711515265052	950.428620925745	599.822605444440	1054.752016540769	962.362636208673	325.539663681031	1152.029285496959	787.926611316076	568.741993885741	1119.492375274305	666.228676096181	643.663094623291	1210.718383414287	630.058961346336	563.882722832053	1233.295463214313	513.952253799768	585.862265334310	1099.823297348137	752.321183598514	352.905819228480	1006.430797189502	638.918398750253	299.207002710927	1088.648440793607	560.284632114354	363.439817331995	1086.278758134723	492.093500224671	376.052423956185	1063.722888357427	421.181842340574	368.837573970745	978.407728486666	303.037568729254	318.225339655111	1031.013177660638	195.389861749591	394.358397643950	1152.278477337655	441.387181256562	593.643897096268	1029.171126781109	411.156742682878	656.197287669402	1005.179957924448	304.493393337286	606.963808512666	800.121317283905	259.079817856573	584.619267578013	963.753704632639	184.733934142195	615.698181108996	854.554891092593	188.344500143960	650.884011988446	1020.112450588156	65.981648020126	631.552357426328	905.469759718120	38.145527537459	440.153150030870	980.415671213056	35.973736105925	360.130501333269	1062.946136272089	96.587982579564	387.663040729488	1192.384724795843	44.209879771727	362.109249705877	1052.001654494183	1104.673622785319	146.687931684067	1240.701691546039	922.409065223863	155.895239546519	961.804770084583	1102.067721714330	753.463175618466	1012.430338153420	844.003079035195	758.986429336574	
54	50.732214285714	839.958582478411	1016.580160867156	477.763285315186	1045.190072875743	1440.499353828372	304.367785715051	1137.854076460672	1361.118235267627	466.917538404768	1051.786162037044	1440.145583032973	637.730922122880	1044.159906227399	1498.992249166950	455.899994915276	1064.285713820133	951.237718247646	599.159352420084	1054.902558907998	962.555525409793	324.850273477919	1153.639127066371	791.508859249492	567.514334856871	1123.917269074544	669.347805399423	642.675192098152	1215.330076548212	634.860879602325	562.329370708532	1240.666483695267	519.381981771264	584.269308807889	1098.665811058735	751.509587537819	352.829100347870	1004.496645056111	638.713445115449	299.049274297558	1085.759360421210	559.451550142265	363.673628079453	1082.748003687077	491.290801148212	376.497861137971	1059.709966551922	420.555364186939	369.151740559582	973.736573042157	303.065760434062	318.210895905305	1024.874996455660	195.006794108453	394.581429555407	1161.564629124396	444.901941956071	592.427192981192	1039.571845070884	410.971563387807	655.185221123973	1018.742182571143	303.489219802971	606.076946542402	815.136682877379	251.774915621651	584.027916089853	980.922088298137	182.393195260671	614.941524228145	871.777091931975	183.027909036645	650.545571702068	1040.850153286582	65.588419535449	631.371816264393	898.229161474243	38.196704888396	440.044583642470	973.224023260255	35.995968026215	360.064186845653	1055.807063084784	96.522212081747	387.701213437511	1185.242409725630	43.926960284326	362.094407139580	1058.760075036297	1106.883714513339	144.304362701259	1256.703926600494	935.072573507045	154.698084152644	951.993108665371	1104.357461620824	751.201656531632	985.073280663607	843.252451384014	758.306170280513	
55	50.744142857143	839.748528739489	1016.633798045614	476.729075332573	1045.436653262539	1441.038125985746	303.856870715187	1137.481133399690	1361.499523687346	466.674430062465	1050.628264327011	1440.161602793171	637.147069620494	1043.645531987868	1499.277915552981	455.481827605966	1063.878582018864	951.953902164923	598.679659260207	1055.181487691067	962.724968899234	324.334693862833	1155.024033270751	794.723105625467	566.551638639067	1127.873311749099	672.171333891764	641.849852277797	1219.287191861718	639.156506040851	560.881422690969	1247.187340015723	524.505684291053	582.853091787964	1097.361559849011	750.649038607553	353.047124615991	1002.472341489786	638.503647122862	298.950273877159	1082.667001172333	558.587694128179	364.010625227938	1079.004466781235	490.490294367196	376.962914853621	1055.509083986710	419.922152167687	369.482681185590	968.912520689550	303.067966779988	318.216238299395	1018.630485966771	194.623814708173	394.814047707575	1170.323217518321	448.045439172916	591.403578615547	1049.728565593079	409.960874880570	654.393772720308	1032.535957472887	301.659068172631	605.419504140089	830.785154513651	242.860092163429	583.696210206784	998.864564747227	179.189125554056	614.452814386501	889.864704732286	176.426079456889	650.501616958541	1062.798114977812	64.626963138545	631.488646866404	890.991017426138	38.234226754717	439.951197810590	966.027048582347	36.010700388945	360.007428696148	1048.660470943556	96.461440884036	387.741256456794	1178.092968210935	43.669649463428	362.086889115482	1064.986396708449	1109.078198153334	142.233528306782	1271.762405608595	948.424365645694	153.911944026846	942.382419567333	1106.965629308585	748.993335197772	959.016606338070	844.256927751024	757.076752556299	
56	50.756071428571	839.560660754767	1016.642155759259	475.801604025818	1045.769679669887	1441.477765712202	303.404356901915	1137.150578190858	1361.833346544484	466.531283639781	1049.483503989721	1440.187323608449	636.605797947123	1043.155045598133	1499.499386082861	455.092915378693	1063.504280273716	952.554819400565	598.368571637546	1055.562139396598	962.869502300269	323.983003357822	1156.179912843662	797.515069308147	565.811985662617	1131.339615641002	674.640904906647	641.187128412976	1222.579590694029	642.865613049154	559.559247067885	1252.827020727406	529.239484152013	581.640491669275	1095.933526818263	749.751046496326	353.523546558152	1000.356828303045	638.291837342776	298.891680638216	1079.375446155314	557.697147185157	364.418923777768	1075.057149439579	489.698606721401	377.421039996072	1051.127124831443	419.283503841478	369.812876726509	963.937233635147	303.043478735400	318.233441544139	1012.295667294287	194.241678884760	395.048097666510	1178.518189995472	450.779471889918	590.586499023226	1059.651212991914	408.136671537434	653.831767364547	1046.548402811226	299.088377624616	604.986381480770	847.138728103487	232.523232324337	583.608458134183	1017.551332306381	175.283847668209	614.228531463935	908.829602142287	168.717663842329	650.719104635790	1085.839425889644	63.287480281453	631.843730722494	883.758800691710	38.258636307672	439.873132215336	958.826394077940	36.018518666459	359.960290752867	1041.508642872389	96.404783711584	387.783703933281	1170.937829793502	43.437746680337	362.084839806890	1070.745368564462	1111.176763281619	140.467345387957	1285.812149248849	962.303430306467	153.519490050061	932.965638838652	1109.906745034648	746.881121140847	934.438487220494	846.775693088522	755.456767361659	
